<?xml version="1.0" standalone="no"?>
<!DOCTYPE svg PUBLIC "-//W3C//DTD SVG 20010904//EN"
 "http://www.w3.org/TR/2001/REC-SVG-20010904/DTD/svg10.dtd">
<svg version="1.0" xmlns="http://www.w3.org/2000/svg"
 width="451.000000pt" height="451.000000pt" viewBox="0 0 451.000000 451.000000"
 preserveAspectRatio="xMidYMid meet">
<metadata>
Created by potrace 1.11, written by Peter Selinger 2001-2013
</metadata>
<g transform="translate(0.000000,451.000000) scale(0.100000,-0.100000)"
fill="#000000" stroke="none">
<path d="M2089 4506 c-2 -2 -36 -6 -75 -9 -39 -4 -77 -9 -85 -11 -8 -3 -33 -7
-57 -10 -226 -28 -585 -169 -819 -321 -176 -115 -356 -273 -484 -425 -29 -36
-57 -67 -61 -70 -4 -3 -45 -62 -91 -132 -73 -109 -158 -266 -210 -388 -50
-116 -114 -335 -133 -455 -3 -22 -7 -42 -9 -45 -2 -3 -7 -44 -11 -90 -8 -105
-8 -102 -17 -117 -4 -6 -3 -14 3 -18 6 -4 8 -10 5 -15 -6 -10 -7 -231 -1 -275
2 -16 7 -57 10 -90 4 -33 9 -76 13 -95 3 -19 7 -47 7 -62 1 -16 4 -28 8 -28 5
0 8 -10 8 -22 0 -13 7 -45 15 -72 8 -26 12 -52 9 -57 -3 -5 -1 -9 4 -9 5 0 9
-6 9 -12 0 -7 12 -48 27 -92 14 -43 23 -83 19 -89 -3 -5 -1 -7 5 -3 6 3 15 -9
22 -31 7 -21 16 -42 21 -47 5 -6 9 -21 9 -34 0 -13 4 -20 10 -17 5 3 10 -1 10
-9 0 -15 32 -79 52 -104 6 -7 8 -15 5 -18 -3 -3 4 -15 15 -26 11 -11 17 -26
14 -34 -3 -8 -2 -13 3 -10 11 7 53 -69 43 -79 -4 -5 -2 -6 3 -2 6 3 28 -21 50
-54 21 -32 41 -59 45 -59 3 0 14 -16 24 -35 11 -19 23 -35 28 -35 5 0 11 -7
14 -15 4 -8 22 -31 41 -50 19 -19 32 -39 28 -45 -4 -6 -1 -9 7 -8 7 2 12 -3
11 -9 -2 -7 3 -12 10 -10 6 1 11 -4 9 -11 -1 -8 2 -11 7 -8 12 8 51 -32 52
-53 0 -9 3 -11 5 -4 3 7 14 2 30 -13 24 -24 32 -40 16 -30 -5 3 -9 -1 -9 -9 0
-11 4 -12 14 -4 13 11 19 7 130 -91 12 -11 25 -20 29 -20 13 0 63 -48 56 -54
-3 -4 1 -4 11 0 9 3 17 2 17 -3 0 -4 16 -17 35 -28 25 -13 34 -23 30 -34 -5
-12 -3 -13 5 -5 9 9 19 8 41 -5 16 -9 29 -19 29 -23 0 -5 7 -8 15 -8 8 0 15
-5 15 -11 0 -5 4 -8 9 -4 5 3 17 -2 25 -11 9 -8 16 -13 16 -10 0 11 98 -43
103 -56 4 -10 6 -10 6 1 1 11 4 11 17 0 9 -7 21 -14 28 -15 6 -1 27 -9 46 -17
19 -8 37 -15 40 -14 3 0 16 -6 30 -13 14 -8 33 -14 43 -15 9 -1 24 -10 33 -21
8 -10 12 -13 9 -6 -5 9 -2 13 6 10 8 -2 36 -10 62 -17 37 -11 47 -17 43 -30
-4 -11 -2 -10 9 3 8 11 15 14 15 7 0 -7 4 -10 8 -7 13 8 172 -26 172 -36 0 -5
-5 -6 -12 -2 -7 5 -8 3 -3 -6 6 -10 10 -10 19 2 8 10 19 12 38 7 15 -4 29 -4
32 -1 3 3 6 0 6 -8 0 -9 4 -10 13 -2 7 6 18 7 26 3 7 -5 22 -6 32 -4 11 3 19
0 19 -6 0 -8 5 -9 19 -2 10 6 21 8 24 5 5 -6 280 -5 327 0 14 2 31 -2 39 -8
11 -8 13 -8 8 1 -4 6 -3 14 3 18 5 3 10 1 10 -6 0 -8 4 -8 13 -2 6 5 33 9 59
9 25 -1 44 2 41 7 -2 4 3 7 11 7 9 0 19 0 24 0 4 0 7 -4 7 -9 0 -5 4 -13 9
-18 5 -4 7 -3 3 2 -10 19 8 34 43 37 19 2 37 6 40 9 9 10 71 19 65 10 -3 -5
-1 -13 5 -16 6 -4 10 -3 9 2 -4 23 5 30 51 42 27 7 55 14 62 15 7 1 23 8 36
15 13 7 30 10 38 7 8 -3 14 -2 14 3 0 5 15 14 33 21 17 7 46 18 62 25 17 8 33
14 37 14 5 1 24 10 44 21 19 11 40 17 46 14 7 -4 8 -2 4 4 -4 7 -1 12 9 12 10
0 13 -5 9 -12 -4 -7 -3 -8 5 -4 6 4 9 11 6 16 -7 12 33 33 50 26 9 -3 12 0 9
8 -3 8 0 17 7 22 8 5 10 3 4 -7 -5 -8 1 -5 13 5 12 11 22 16 22 12 0 -4 9 2
21 13 36 33 138 93 149 86 5 -3 8 0 5 7 -3 7 8 22 25 33 16 11 30 23 30 28 0
4 5 7 11 7 5 0 7 -5 3 -12 -4 -7 -3 -8 5 -4 6 4 9 11 6 16 -7 11 30 32 40 22
3 -4 5 -1 3 7 -2 8 8 20 22 28 14 7 21 13 17 13 -4 0 -2 6 5 14 7 8 16 12 20
10 4 -2 9 5 13 16 3 11 11 20 16 20 5 0 24 16 41 36 24 27 33 32 40 22 7 -10
8 -8 4 4 -3 12 9 32 40 63 26 25 44 45 41 45 -3 0 10 16 28 36 22 23 39 33 47
28 10 -6 11 -5 1 7 -8 9 -9 20 -3 29 6 8 10 11 10 5 0 -5 9 6 19 25 11 20 26
34 35 34 13 -2 14 1 5 12 -6 8 -7 14 -3 14 5 0 20 20 34 45 14 25 31 45 38 45
7 0 10 4 7 10 -6 10 24 70 35 70 3 0 7 10 7 22 1 13 10 28 19 35 10 7 15 13
11 13 -3 0 7 26 22 57 16 32 34 75 42 95 7 20 17 34 22 31 6 -3 7 -1 3 5 -4 7
-1 26 7 44 8 18 20 53 28 78 7 25 17 51 22 58 5 6 7 12 4 12 -3 0 -1 15 5 33
13 43 26 95 33 137 3 19 8 48 11 64 3 16 7 32 9 36 26 42 26 607 0 700 -2 8
-7 31 -10 50 -3 19 -8 42 -10 50 -2 8 -7 26 -9 40 -44 213 -157 494 -268 663
-21 32 -38 60 -38 63 0 7 -109 154 -159 214 -25 30 -91 99 -145 153 -337 332
-744 536 -1226 613 -81 13 -481 29 -491 20z"/>
<path d="M850 550 c0 -5 5 -10 11 -10 5 0 7 5 4 10 -3 6 -8 10 -11 10 -2 0 -4
-4 -4 -10z"/>
<path d="M935 491 c-3 -5 -2 -12 3 -15 5 -3 9 1 9 9 0 17 -3 19 -12 6z"/>
<path d="M1510 176 c0 -2 7 -7 16 -10 8 -3 12 -2 9 4 -6 10 -25 14 -25 6z"/>
<path d="M1853 95 c0 -8 4 -12 9 -9 5 3 6 10 3 15 -9 13 -12 11 -12 -6z"/>
<path d="M2230 66 c0 -2 8 -10 18 -17 15 -13 16 -12 3 4 -13 16 -21 21 -21 13z"/>
<path d="M2290 56 c0 -2 7 -7 16 -10 8 -3 12 -2 9 4 -6 10 -25 14 -25 6z"/>
</g>
</svg>
